<?xml version="1.0" encoding="UTF-8"?>
<svg version="1.1" viewBox="75 75 350 350" xmlns="http://www.w3.org/2000/svg" xmlns:xlink="http://www.w3.org/1999/xlink">
  <defs>
    <path id="b"
          d="m364.15 158.98c0-0.203-0.025-0.403-0.038-0.603-0.01-0.17-0.01-0.346-0.034-0.514-0.03-0.207-0.08-0.407-0.123-0.61-0.037-0.161-0.053-0.327-0.098-0.489-0.055-0.209-0.134-0.407-0.207-0.612-0.05-0.145-0.091-0.298-0.152-0.44-0.09-0.21-0.2-0.413-0.303-0.617-0.061-0.123-0.118-0.255-0.186-0.376-0.128-0.218-0.276-0.42-0.417-0.623-0.07-0.098-0.127-0.202-0.195-0.296-0.196-0.257-0.412-0.493-0.637-0.727-0.032-0.037-0.062-0.075-0.098-0.11-0.52-0.527-1.121-0.991-1.781-1.373l-105.81-61.095c-2.653-1.528-5.921-1.522-8.569 0.014l-105.13 61.094c-0.166 0.096-0.313 0.21-0.468 0.316-0.153 0.103-0.314 0.196-0.457 0.307-0.15 0.119-0.29 0.25-0.432 0.378-0.137 0.12-0.28 0.234-0.41 0.362-0.134 0.136-0.252 0.289-0.377 0.432-0.119 0.134-0.246 0.264-0.348 0.405-0.116 0.152-0.217 0.316-0.323 0.477-0.096 0.148-0.205 0.29-0.292 0.44-0.095 0.165-0.168 0.34-0.252 0.511-0.08 0.162-0.173 0.314-0.239 0.48-0.07 0.178-0.12 0.36-0.186 0.54-0.057 0.17-0.126 0.336-0.173 0.509-0.046 0.18-0.07 0.366-0.107 0.546-0.039 0.184-0.089 0.363-0.114 0.552-0.02 0.185-0.02 0.371-0.034 0.558-0.014 0.184-0.039 0.37-0.039 0.557l-0.261 126.35c-0.01 3.061 1.621 5.888 4.269 7.42l105.82 61.09c0 1e-3 4e-3 1e-3 6e-3 4e-3 1.322 0.762 2.794 1.144 4.272 1.144 0.364 0 0.737-0.025 1.103-0.073 0.127-0.016 0.25-0.05 0.378-0.073 0.239-0.043 0.477-0.082 0.712-0.143 0.143-0.039 0.282-0.096 0.425-0.141 0.212-0.07 0.428-0.132 0.64-0.216 0.147-0.064 0.288-0.146 0.431-0.216 0.19-0.091 0.39-0.173 0.571-0.28 7e-3 -2e-3 0.01-7e-3 0.016-0.01 5e-3 -1e-3 0.011-1e-3 0.014-6e-3l105.13-61.095c2.629-1.526 4.244-4.333 4.25-7.371l0.262-126.35v-0.016-0.013z"/>
  </defs>
  <g fill="none" fill-rule="evenodd">
    <rect width="500" height="500" id="logo-bg" fill="none"/>
    <g fill="none">
      <mask id="a" fill="#fff">
        <use xlink:href="#b"/>
      </mask>
      <use fill="#59606d" xlink:href="#b"/>
      <path
        d="m250 112.45l-78.554 43.301v93.598c3e-3 2.518 1.124 4.84 2.946 6.101l72.77 39.329c0.91 0.63 1.822 0.953 2.838 0.953 1.022 0 2.043-0.318 2.96-0.953l72.667-39.342c1.806-1.257 2.385-3.915 2.388-6.425 1e-3 -1.673 1e-3 -32.76 0-93.261l-78.015-43.302z"
        fill="#c6f1e7" fill-opacity=".2" mask="url(#a)"/>
      <path
        d="m250 112.45c-0.255 122-0.043 183.01 0.635 183.01 1.02 0 2.042-0.32 2.959-0.954l72.033-39.066c1.806-1.257 2.385-3.915 2.388-6.425 1e-3 -1.673 1e-3 -32.665 0-92.977l-78.015-43.586z"
        fill="#c6f1e7" fill-opacity=".2" mask="url(#a)"/>
      <path
        d="m252.7 227.01c-1.822-1.053-4.078-1.049-5.9 0.011l-72.431 42.09c-1.818 1.056-2.932 2.999-2.927 5.1 2e-3 2.1 1.123 4.038 2.943 5.089l72.904 42.092c0.91 0.528 1.926 0.787 2.943 0.787 1.024 0 2.043-0.263 2.96-0.796l72.43-42.09c1.817-1.056 2.443-3.208 2.439-5.307-2e-3 -2.1-0.635-3.832-2.455-4.883l-72.906-42.093z"
        fill="#c6f1e7" fill-opacity=".5" mask="url(#a)"/>
      <g transform="translate(40 371)">
        <rect width="420" height="41"/>
        <text fill="#59606d" font-family="Fira Mono, monospace" font-size="50" font-weight="700" letter-spacing="5.714"
              data-text-alignment="C" line-spacing="40">
          <tspan x="70" y="35">PanEmbed</tspan>
        </text>
      </g>
    </g>
  </g>
</svg>
